name Walk2.mot
datacolumns 19
datarows 30
range 1.72000000 1.74900000
endheader

                time	   L_ground_force_vx	   L_ground_force_vy	   L_ground_force_vz	   L_ground_force_px	   L_ground_force_py	   L_ground_force_pz	   R_ground_force_vx	   R_ground_force_vy	   R_ground_force_vz	   R_ground_force_px	   R_ground_force_py	   R_ground_force_pz	   L_ground_torque_x	   L_ground_torque_y	   L_ground_torque_z	   R_ground_torque_x	   R_ground_torque_y	   R_ground_torque_z	
          1.72000000	        -25.00848391	        454.30742498	        -23.95403454	          0.44420619	          0.00000000	          0.07963467	          0.00000000	          0.00000000	          0.00000000	          0.00000000	          0.00000000	          0.00000000	          0.00000000	         -0.13156637	          0.00000000	          0.00000000	          0.00000000	          0.00000000	
          1.72100000	        -24.86573274	        454.31752850	        -23.68211046	          0.44467033	          0.00000000	          0.07972988	          0.00000000	          0.00000000	          0.00000000	          0.00000000	          0.00000000	          0.00000000	          0.00000000	         -0.10288723	          0.00000000	          0.00000000	          0.00000000	          0.00000000	
          1.72200000	        -24.70259343	        454.28363858	        -23.45106876	          0.44518245	          0.00000000	          0.07970095	          0.00000000	          0.00000000	          0.00000000	          0.00000000	          0.00000000	          0.00000000	          0.00000000	         -0.08683301	          0.00000000	          0.00000000	          0.00000000	          0.00000000	
          1.72300000	        -24.50406957	        454.21257615	        -23.29498810	          0.44577176	          0.00000000	          0.07957283	          0.00000000	          0.00000000	          0.00000000	          0.00000000	          0.00000000	          0.00000000	          0.00000000	         -0.07615396	          0.00000000	          0.00000000	          0.00000000	          0.00000000	
          1.72400000	        -24.27407982	        454.14969954	        -23.21741859	          0.44642877	          0.00000000	          0.07942264	          0.00000000	          0.00000000	          0.00000000	          0.00000000	          0.00000000	          0.00000000	          0.00000000	         -0.06138722	          0.00000000	          0.00000000	          0.00000000	          0.00000000	
          1.72500000	        -24.02670526	        454.14212031	        -23.18797360	          0.44714686	          0.00000000	          0.07930559	          0.00000000	          0.00000000	          0.00000000	          0.00000000	          0.00000000	          0.00000000	          0.00000000	         -0.03718861	          0.00000000	          0.00000000	          0.00000000	          0.00000000	
          1.72600000	        -23.78346120	        454.22559273	        -23.16874483	          0.44791374	          0.00000000	          0.07923163	          0.00000000	          0.00000000	          0.00000000	          0.00000000	          0.00000000	          0.00000000	          0.00000000	         -0.00437735	          0.00000000	          0.00000000	          0.00000000	          0.00000000	
          1.72700000	        -23.56749483	        454.40875259	        -23.13609267	          0.44870342	          0.00000000	          0.07917543	          0.00000000	          0.00000000	          0.00000000	          0.00000000	          0.00000000	          0.00000000	          0.00000000	          0.02986983	          0.00000000	          0.00000000	          0.00000000	          0.00000000	
          1.72800000	        -23.38914077	        454.65153375	        -23.07789520	          0.44949069	          0.00000000	          0.07908591	          0.00000000	          0.00000000	          0.00000000	          0.00000000	          0.00000000	          0.00000000	          0.00000000	          0.05840409	          0.00000000	          0.00000000	          0.00000000	          0.00000000	
          1.72900000	        -23.23922179	        454.90437438	        -22.98986360	          0.45024521	          0.00000000	          0.07892514	          0.00000000	          0.00000000	          0.00000000	          0.00000000	          0.00000000	          0.00000000	          0.00000000	          0.08300738	          0.00000000	          0.00000000	          0.00000000	          0.00000000	
          1.73000000	        -23.09800386	        455.17086147	        -22.88435622	          0.45094256	          0.00000000	          0.07871738	          0.00000000	          0.00000000	          0.00000000	          0.00000000	          0.00000000	          0.00000000	          0.00000000	          0.11185953	          0.00000000	          0.00000000	          0.00000000	          0.00000000	
          1.73100000	        -22.94829400	        455.50378182	        -22.78653240	          0.45161209	          0.00000000	          0.07853378	          0.00000000	          0.00000000	          0.00000000	          0.00000000	          0.00000000	          0.00000000	          0.00000000	          0.14795514	          0.00000000	          0.00000000	          0.00000000	          0.00000000	
          1.73200000	        -22.78403725	        455.94562514	        -22.71509178	          0.45230333	          0.00000000	          0.07843027	          0.00000000	          0.00000000	          0.00000000	          0.00000000	          0.00000000	          0.00000000	          0.00000000	          0.18649971	          0.00000000	          0.00000000	          0.00000000	          0.00000000	
          1.73300000	        -22.61120213	        456.47048027	        -22.67456845	          0.45299523	          0.00000000	          0.07841228	          0.00000000	          0.00000000	          0.00000000	          0.00000000	          0.00000000	          0.00000000	          0.00000000	          0.22196408	          0.00000000	          0.00000000	          0.00000000	          0.00000000	
          1.73400000	        -22.43646012	        456.99118482	        -22.66433145	          0.45362965	          0.00000000	          0.07844221	          0.00000000	          0.00000000	          0.00000000	          0.00000000	          0.00000000	          0.00000000	          0.00000000	          0.25176824	          0.00000000	          0.00000000	          0.00000000	          0.00000000	
          1.73500000	        -22.25320265	        457.44176816	        -22.68350191	          0.45421719	          0.00000000	          0.07846350	          0.00000000	          0.00000000	          0.00000000	          0.00000000	          0.00000000	          0.00000000	          0.00000000	          0.27552937	          0.00000000	          0.00000000	          0.00000000	          0.00000000	
          1.73600000	        -22.04643318	        457.83609951	        -22.72460902	          0.45482266	          0.00000000	          0.07842565	          0.00000000	          0.00000000	          0.00000000	          0.00000000	          0.00000000	          0.00000000	          0.00000000	          0.29563026	          0.00000000	          0.00000000	          0.00000000	          0.00000000	
          1.73700000	        -21.81315529	        458.24558638	        -22.77589530	          0.45547287	          0.00000000	          0.07831857	          0.00000000	          0.00000000	          0.00000000	          0.00000000	          0.00000000	          0.00000000	          0.00000000	          0.31660344	          0.00000000	          0.00000000	          0.00000000	          0.00000000	
          1.73800000	        -21.56528205	        458.73640348	        -22.83247157	          0.45614994	          0.00000000	          0.07818589	          0.00000000	          0.00000000	          0.00000000	          0.00000000	          0.00000000	          0.00000000	          0.00000000	          0.33944206	          0.00000000	          0.00000000	          0.00000000	          0.00000000	
          1.73900000	        -21.30711165	        459.30799681	        -22.89455878	          0.45684228	          0.00000000	          0.07807320	          0.00000000	          0.00000000	          0.00000000	          0.00000000	          0.00000000	          0.00000000	          0.00000000	          0.36167274	          0.00000000	          0.00000000	          0.00000000	          0.00000000	
          1.74000000	        -21.02427553	        459.89546084	        -22.96206099	          0.45754132	          0.00000000	          0.07798386	          0.00000000	          0.00000000	          0.00000000	          0.00000000	          0.00000000	          0.00000000	          0.00000000	          0.38546466	          0.00000000	          0.00000000	          0.00000000	          0.00000000	
          1.74100000	        -20.70357158	        460.45746228	        -23.04144870	          0.45822136	          0.00000000	          0.07791364	          0.00000000	          0.00000000	          0.00000000	          0.00000000	          0.00000000	          0.00000000	          0.00000000	          0.41472919	          0.00000000	          0.00000000	          0.00000000	          0.00000000	
          1.74200000	        -20.34881789	        461.03052672	        -23.14836597	          0.45886195	          0.00000000	          0.07788213	          0.00000000	          0.00000000	          0.00000000	          0.00000000	          0.00000000	          0.00000000	          0.00000000	          0.44529266	          0.00000000	          0.00000000	          0.00000000	          0.00000000	
          1.74300000	        -19.96851943	        461.67376040	        -23.29087869	          0.45946647	          0.00000000	          0.07790173	          0.00000000	          0.00000000	          0.00000000	          0.00000000	          0.00000000	          0.00000000	          0.00000000	          0.47062455	          0.00000000	          0.00000000	          0.00000000	          0.00000000	
          1.74400000	        -19.56409907	        462.40440266	        -23.45082099	          0.46004924	          0.00000000	          0.07796022	          0.00000000	          0.00000000	          0.00000000	          0.00000000	          0.00000000	          0.00000000	          0.00000000	          0.49439734	          0.00000000	          0.00000000	          0.00000000	          0.00000000	
          1.74500000	        -19.13468432	        463.18918276	        -23.59728397	          0.46062441	          0.00000000	          0.07803977	          0.00000000	          0.00000000	          0.00000000	          0.00000000	          0.00000000	          0.00000000	          0.00000000	          0.52657513	          0.00000000	          0.00000000	          0.00000000	          0.00000000	
          1.74600000	        -18.67949512	        463.95085724	        -23.72237776	          0.46120644	          0.00000000	          0.07810985	          0.00000000	          0.00000000	          0.00000000	          0.00000000	          0.00000000	          0.00000000	          0.00000000	          0.57028037	          0.00000000	          0.00000000	          0.00000000	          0.00000000	
          1.74700000	        -18.19868986	        464.60829318	        -23.84580456	          0.46180656	          0.00000000	          0.07812306	          0.00000000	          0.00000000	          0.00000000	          0.00000000	          0.00000000	          0.00000000	          0.00000000	          0.61994034	          0.00000000	          0.00000000	          0.00000000	          0.00000000	
          1.74800000	        -17.70095981	        465.15931621	        -23.98877411	          0.46243305	          0.00000000	          0.07806462	          0.00000000	          0.00000000	          0.00000000	          0.00000000	          0.00000000	          0.00000000	          0.00000000	          0.66778354	          0.00000000	          0.00000000	          0.00000000	          0.00000000	
          1.74900000	        -17.20483365	        465.71049059	        -24.16042030	          0.46309956	          0.00000000	          0.07797659	          0.00000000	          0.00000000	          0.00000000	          0.00000000	          0.00000000	          0.00000000	          0.00000000	          0.70675311	          0.00000000	          0.00000000	          0.00000000	          0.00000000	
